<mxfile host="app.diagrams.net" agent="Mozilla/5.0 (Windows NT 10.0; Win64; x64) AppleWebKit/537.36 (KHTML, like Gecko) Chrome/132.0.0.0 Safari/537.36 OPR/117.0.0.0" version="26.2.9">
  <diagram name="Page-1" id="e0vcfY-wzOfXlKEQO6DO">
    <mxGraphModel dx="1215" dy="788" grid="1" gridSize="10" guides="1" tooltips="1" connect="1" arrows="1" fold="1" page="1" pageScale="1" pageWidth="827" pageHeight="1169" math="0" shadow="0">
      <root>
        <mxCell id="0" />
        <mxCell id="1" parent="0" />
        <mxCell id="FoC8hrdnB2qq6XL04yXa-1" value="Običan korisnik" style="shape=umlActor;verticalLabelPosition=bottom;verticalAlign=top;html=1;" vertex="1" parent="1">
          <mxGeometry x="80" y="130" width="30" height="60" as="geometry" />
        </mxCell>
        <mxCell id="FoC8hrdnB2qq6XL04yXa-2" value="Prijavljen korisnik" style="shape=umlActor;verticalLabelPosition=bottom;verticalAlign=top;html=1;" vertex="1" parent="1">
          <mxGeometry x="80" y="410" width="30" height="60" as="geometry" />
        </mxCell>
        <mxCell id="FoC8hrdnB2qq6XL04yXa-3" value="Administrator" style="shape=umlActor;verticalLabelPosition=bottom;verticalAlign=top;html=1;" vertex="1" parent="1">
          <mxGeometry x="80" y="610" width="30" height="60" as="geometry" />
        </mxCell>
        <mxCell id="FoC8hrdnB2qq6XL04yXa-5" value="Pregled objavljenih oglasa" style="ellipse;whiteSpace=wrap;html=1;" vertex="1" parent="1">
          <mxGeometry x="270" y="130" width="120" height="60" as="geometry" />
        </mxCell>
        <mxCell id="FoC8hrdnB2qq6XL04yXa-6" value="Registracija korisničkog računa" style="ellipse;whiteSpace=wrap;html=1;" vertex="1" parent="1">
          <mxGeometry x="270" y="20" width="120" height="60" as="geometry" />
        </mxCell>
        <mxCell id="FoC8hrdnB2qq6XL04yXa-7" value="Prijava na korisnički račun" style="ellipse;whiteSpace=wrap;html=1;" vertex="1" parent="1">
          <mxGeometry x="270" y="230" width="120" height="60" as="geometry" />
        </mxCell>
        <mxCell id="FoC8hrdnB2qq6XL04yXa-10" value="" style="endArrow=none;html=1;rounded=0;exitX=0.5;exitY=0.5;exitDx=0;exitDy=0;exitPerimeter=0;entryX=0;entryY=0.5;entryDx=0;entryDy=0;" edge="1" parent="1" source="FoC8hrdnB2qq6XL04yXa-1" target="FoC8hrdnB2qq6XL04yXa-5">
          <mxGeometry width="50" height="50" relative="1" as="geometry">
            <mxPoint x="370" y="310" as="sourcePoint" />
            <mxPoint x="420" y="260" as="targetPoint" />
          </mxGeometry>
        </mxCell>
        <mxCell id="FoC8hrdnB2qq6XL04yXa-11" value="" style="endArrow=none;html=1;rounded=0;exitX=0.5;exitY=0.5;exitDx=0;exitDy=0;exitPerimeter=0;entryX=0;entryY=0.5;entryDx=0;entryDy=0;" edge="1" parent="1" source="FoC8hrdnB2qq6XL04yXa-1" target="FoC8hrdnB2qq6XL04yXa-6">
          <mxGeometry width="50" height="50" relative="1" as="geometry">
            <mxPoint x="105" y="170" as="sourcePoint" />
            <mxPoint x="280" y="70" as="targetPoint" />
          </mxGeometry>
        </mxCell>
        <mxCell id="FoC8hrdnB2qq6XL04yXa-12" value="" style="endArrow=none;html=1;rounded=0;exitX=0.5;exitY=0.5;exitDx=0;exitDy=0;exitPerimeter=0;entryX=0;entryY=0.5;entryDx=0;entryDy=0;" edge="1" parent="1" source="FoC8hrdnB2qq6XL04yXa-1" target="FoC8hrdnB2qq6XL04yXa-7">
          <mxGeometry width="50" height="50" relative="1" as="geometry">
            <mxPoint x="115" y="180" as="sourcePoint" />
            <mxPoint x="290" y="80" as="targetPoint" />
          </mxGeometry>
        </mxCell>
        <mxCell id="FoC8hrdnB2qq6XL04yXa-13" value="Pregled detalja oglasa" style="ellipse;whiteSpace=wrap;html=1;" vertex="1" parent="1">
          <mxGeometry x="520" y="80" width="120" height="60" as="geometry" />
        </mxCell>
        <mxCell id="FoC8hrdnB2qq6XL04yXa-14" value="Prijava oglasa&lt;span style=&quot;white-space:pre&quot;&gt;&#x9;&lt;/span&gt;" style="ellipse;whiteSpace=wrap;html=1;" vertex="1" parent="1">
          <mxGeometry x="520" y="190" width="120" height="60" as="geometry" />
        </mxCell>
        <mxCell id="FoC8hrdnB2qq6XL04yXa-15" value="&amp;lt;&amp;lt;Extend&amp;gt;&amp;gt;" style="endArrow=open;endSize=16;endFill=0;html=1;rounded=0;exitX=0;exitY=0.5;exitDx=0;exitDy=0;entryX=1;entryY=0;entryDx=0;entryDy=0;dashed=1;dashPattern=8 8;" edge="1" parent="1" source="FoC8hrdnB2qq6XL04yXa-13" target="FoC8hrdnB2qq6XL04yXa-5">
          <mxGeometry width="160" relative="1" as="geometry">
            <mxPoint x="320" y="280" as="sourcePoint" />
            <mxPoint x="480" y="280" as="targetPoint" />
          </mxGeometry>
        </mxCell>
        <mxCell id="FoC8hrdnB2qq6XL04yXa-17" value="&amp;lt;&amp;lt;Extend&amp;gt;&amp;gt;" style="endArrow=open;endSize=16;endFill=0;html=1;rounded=0;exitX=0;exitY=0.5;exitDx=0;exitDy=0;entryX=1;entryY=1;entryDx=0;entryDy=0;dashed=1;dashPattern=8 8;" edge="1" parent="1" source="FoC8hrdnB2qq6XL04yXa-14" target="FoC8hrdnB2qq6XL04yXa-5">
          <mxGeometry width="160" relative="1" as="geometry">
            <mxPoint x="530" y="120" as="sourcePoint" />
            <mxPoint x="400" y="170" as="targetPoint" />
          </mxGeometry>
        </mxCell>
        <mxCell id="FoC8hrdnB2qq6XL04yXa-18" value="Ažuriranje postavi profila" style="ellipse;whiteSpace=wrap;html=1;" vertex="1" parent="1">
          <mxGeometry x="270" y="310" width="120" height="60" as="geometry" />
        </mxCell>
        <mxCell id="FoC8hrdnB2qq6XL04yXa-19" value="Pregled vlastitih oglasa" style="ellipse;whiteSpace=wrap;html=1;" vertex="1" parent="1">
          <mxGeometry x="270" y="410" width="120" height="60" as="geometry" />
        </mxCell>
        <mxCell id="FoC8hrdnB2qq6XL04yXa-20" value="Stvaranje novog oglasa" style="ellipse;whiteSpace=wrap;html=1;" vertex="1" parent="1">
          <mxGeometry x="270" y="510" width="120" height="60" as="geometry" />
        </mxCell>
        <mxCell id="FoC8hrdnB2qq6XL04yXa-21" value="Ažuriranje detalja vlastitog oglasa" style="ellipse;whiteSpace=wrap;html=1;" vertex="1" parent="1">
          <mxGeometry x="520" y="360" width="120" height="60" as="geometry" />
        </mxCell>
        <mxCell id="FoC8hrdnB2qq6XL04yXa-22" value="Brisanje vlastitog oglasa" style="ellipse;whiteSpace=wrap;html=1;" vertex="1" parent="1">
          <mxGeometry x="520" y="470" width="120" height="60" as="geometry" />
        </mxCell>
        <mxCell id="FoC8hrdnB2qq6XL04yXa-23" value="&amp;lt;&amp;lt;Extend&amp;gt;&amp;gt;" style="endArrow=open;endSize=16;endFill=0;html=1;rounded=0;exitX=0;exitY=0.5;exitDx=0;exitDy=0;dashed=1;dashPattern=8 8;entryX=1;entryY=0;entryDx=0;entryDy=0;" edge="1" parent="1" source="FoC8hrdnB2qq6XL04yXa-21" target="FoC8hrdnB2qq6XL04yXa-19">
          <mxGeometry width="160" relative="1" as="geometry">
            <mxPoint x="320" y="560" as="sourcePoint" />
            <mxPoint x="390" y="390" as="targetPoint" />
          </mxGeometry>
        </mxCell>
        <mxCell id="FoC8hrdnB2qq6XL04yXa-24" value="&amp;lt;&amp;lt;Extend&amp;gt;&amp;gt;" style="endArrow=open;endSize=16;endFill=0;html=1;rounded=0;exitX=0;exitY=0.5;exitDx=0;exitDy=0;dashed=1;dashPattern=8 8;entryX=1;entryY=1;entryDx=0;entryDy=0;" edge="1" parent="1" source="FoC8hrdnB2qq6XL04yXa-22" target="FoC8hrdnB2qq6XL04yXa-19">
          <mxGeometry width="160" relative="1" as="geometry">
            <mxPoint x="530" y="400" as="sourcePoint" />
            <mxPoint x="390" y="480" as="targetPoint" />
          </mxGeometry>
        </mxCell>
        <mxCell id="FoC8hrdnB2qq6XL04yXa-25" value="" style="endArrow=none;html=1;rounded=0;exitX=0.5;exitY=0.5;exitDx=0;exitDy=0;exitPerimeter=0;entryX=0;entryY=0.5;entryDx=0;entryDy=0;" edge="1" parent="1" source="FoC8hrdnB2qq6XL04yXa-2" target="FoC8hrdnB2qq6XL04yXa-18">
          <mxGeometry width="50" height="50" relative="1" as="geometry">
            <mxPoint x="105" y="170" as="sourcePoint" />
            <mxPoint x="280" y="60" as="targetPoint" />
          </mxGeometry>
        </mxCell>
        <mxCell id="FoC8hrdnB2qq6XL04yXa-26" value="" style="endArrow=none;html=1;rounded=0;exitX=0.5;exitY=0.5;exitDx=0;exitDy=0;exitPerimeter=0;entryX=0;entryY=0.5;entryDx=0;entryDy=0;" edge="1" parent="1" source="FoC8hrdnB2qq6XL04yXa-2" target="FoC8hrdnB2qq6XL04yXa-19">
          <mxGeometry width="50" height="50" relative="1" as="geometry">
            <mxPoint x="115" y="180" as="sourcePoint" />
            <mxPoint x="290" y="70" as="targetPoint" />
          </mxGeometry>
        </mxCell>
        <mxCell id="FoC8hrdnB2qq6XL04yXa-27" value="" style="endArrow=none;html=1;rounded=0;exitX=0.5;exitY=0.5;exitDx=0;exitDy=0;exitPerimeter=0;entryX=0;entryY=0.5;entryDx=0;entryDy=0;" edge="1" parent="1" source="FoC8hrdnB2qq6XL04yXa-2" target="FoC8hrdnB2qq6XL04yXa-20">
          <mxGeometry width="50" height="50" relative="1" as="geometry">
            <mxPoint x="125" y="190" as="sourcePoint" />
            <mxPoint x="300" y="80" as="targetPoint" />
          </mxGeometry>
        </mxCell>
        <mxCell id="FoC8hrdnB2qq6XL04yXa-28" value="Pregled prijavljenih oglasa" style="ellipse;whiteSpace=wrap;html=1;" vertex="1" parent="1">
          <mxGeometry x="270" y="610" width="120" height="60" as="geometry" />
        </mxCell>
        <mxCell id="FoC8hrdnB2qq6XL04yXa-29" value="Brisanje prijavljenog oglasa" style="ellipse;whiteSpace=wrap;html=1;" vertex="1" parent="1">
          <mxGeometry x="520" y="610" width="120" height="60" as="geometry" />
        </mxCell>
        <mxCell id="FoC8hrdnB2qq6XL04yXa-30" value="&amp;lt;&amp;lt;Extend&amp;gt;&amp;gt;" style="endArrow=open;endSize=16;endFill=0;html=1;rounded=0;exitX=0;exitY=0.5;exitDx=0;exitDy=0;dashed=1;dashPattern=8 8;entryX=1;entryY=0.5;entryDx=0;entryDy=0;" edge="1" parent="1" source="FoC8hrdnB2qq6XL04yXa-29" target="FoC8hrdnB2qq6XL04yXa-28">
          <mxGeometry width="160" relative="1" as="geometry">
            <mxPoint x="530" y="510" as="sourcePoint" />
            <mxPoint x="382" y="471" as="targetPoint" />
          </mxGeometry>
        </mxCell>
        <mxCell id="FoC8hrdnB2qq6XL04yXa-31" value="" style="endArrow=none;html=1;rounded=0;exitX=0.5;exitY=0.5;exitDx=0;exitDy=0;exitPerimeter=0;entryX=0;entryY=0.5;entryDx=0;entryDy=0;" edge="1" parent="1" source="FoC8hrdnB2qq6XL04yXa-3" target="FoC8hrdnB2qq6XL04yXa-28">
          <mxGeometry width="50" height="50" relative="1" as="geometry">
            <mxPoint x="105" y="450" as="sourcePoint" />
            <mxPoint x="280" y="550" as="targetPoint" />
          </mxGeometry>
        </mxCell>
      </root>
    </mxGraphModel>
  </diagram>
</mxfile>
